<mxfile host="65bd71144e">
    <diagram id="fX8sRLFY2Yk5t1hTzSkn" name="Page-1">
        <mxGraphModel dx="2825" dy="2186" grid="1" gridSize="10" guides="1" tooltips="1" connect="1" arrows="1" fold="1" page="1" pageScale="1" pageWidth="850" pageHeight="1100" math="0" shadow="0">
            <root>
                <mxCell id="0"/>
                <mxCell id="1" parent="0"/>
                <mxCell id="2" value="Discgolf-Club" style="whiteSpace=wrap;html=1;align=center;" parent="1" vertex="1">
                    <mxGeometry x="130" y="280" width="140" height="60" as="geometry"/>
                </mxCell>
                <mxCell id="3" value="Have" style="shape=rhombus;perimeter=rhombusPerimeter;whiteSpace=wrap;html=1;align=center;" parent="1" vertex="1">
                    <mxGeometry x="-50" y="280" width="120" height="60" as="geometry"/>
                </mxCell>
                <mxCell id="4" value="Members" style="whiteSpace=wrap;html=1;align=center;" parent="1" vertex="1">
                    <mxGeometry x="-210" y="290" width="100" height="40" as="geometry"/>
                </mxCell>
                <mxCell id="5" value="Consists_Of" style="shape=rhombus;perimeter=rhombusPerimeter;whiteSpace=wrap;html=1;align=center;" parent="1" vertex="1">
                    <mxGeometry x="420.74" y="380" width="120" height="60" as="geometry"/>
                </mxCell>
                <mxCell id="6" value="Sponsors" style="whiteSpace=wrap;html=1;align=center;" parent="1" vertex="1">
                    <mxGeometry x="650.74" y="180" width="100" height="40" as="geometry"/>
                </mxCell>
                <mxCell id="7" value="Have" style="shape=rhombus;perimeter=rhombusPerimeter;whiteSpace=wrap;html=1;align=center;" parent="1" vertex="1">
                    <mxGeometry x="410.74" y="170" width="120" height="60" as="geometry"/>
                </mxCell>
                <mxCell id="10" value="Playing" style="shape=rhombus;perimeter=rhombusPerimeter;whiteSpace=wrap;html=1;align=center;" parent="1" vertex="1">
                    <mxGeometry x="-160" y="100" width="120" height="60" as="geometry"/>
                </mxCell>
                <mxCell id="14" value="CompetitionDate" style="ellipse;whiteSpace=wrap;html=1;align=center;" parent="1" vertex="1">
                    <mxGeometry x="-240" y="-90" width="100" height="40" as="geometry"/>
                </mxCell>
                <mxCell id="15" value="RegisterDate" style="ellipse;whiteSpace=wrap;html=1;align=center;" parent="1" vertex="1">
                    <mxGeometry x="-215" y="-140" width="110" height="40" as="geometry"/>
                </mxCell>
                <mxCell id="16" value="&lt;u&gt;CompetitionId&lt;/u&gt;" style="ellipse;whiteSpace=wrap;html=1;align=center;" parent="1" vertex="1">
                    <mxGeometry x="-90" y="-150" width="100" height="40" as="geometry"/>
                </mxCell>
                <mxCell id="17" value="Course" style="whiteSpace=wrap;html=1;align=center;" parent="1" vertex="1">
                    <mxGeometry x="320" y="-90" width="100" height="40" as="geometry"/>
                </mxCell>
                <mxCell id="18" value="Board_members" style="whiteSpace=wrap;html=1;align=center;" parent="1" vertex="1">
                    <mxGeometry x="650.74" y="390" width="100" height="40" as="geometry"/>
                </mxCell>
                <mxCell id="19" value="Address" style="ellipse;whiteSpace=wrap;html=1;align=center;" parent="1" vertex="1">
                    <mxGeometry x="320" y="-150" width="100" height="40" as="geometry"/>
                </mxCell>
                <mxCell id="20" value="Competition" style="whiteSpace=wrap;html=1;align=center;" parent="1" vertex="1">
                    <mxGeometry x="-90" y="-90" width="100" height="40" as="geometry"/>
                </mxCell>
                <mxCell id="21" value="Plays_On" style="shape=rhombus;perimeter=rhombusPerimeter;whiteSpace=wrap;html=1;align=center;" parent="1" vertex="1">
                    <mxGeometry x="110" y="-100" width="120" height="60" as="geometry"/>
                </mxCell>
                <mxCell id="26" value="Course_name" style="ellipse;whiteSpace=wrap;html=1;align=center;" parent="1" vertex="1">
                    <mxGeometry x="450" y="-120" width="100" height="40" as="geometry"/>
                </mxCell>
                <mxCell id="27" value="&lt;u&gt;Course_Id&lt;/u&gt;" style="ellipse;whiteSpace=wrap;html=1;align=center;" parent="1" vertex="1">
                    <mxGeometry x="450" y="-60" width="100" height="40" as="geometry"/>
                </mxCell>
                <mxCell id="28" value="Placement" style="ellipse;whiteSpace=wrap;html=1;align=center;" parent="1" vertex="1">
                    <mxGeometry x="-230" y="50" width="100" height="40" as="geometry"/>
                </mxCell>
                <mxCell id="29" value="&lt;u&gt;MemberId&lt;/u&gt;" style="ellipse;whiteSpace=wrap;html=1;align=center;" parent="1" vertex="1">
                    <mxGeometry x="-330" y="350" width="100" height="40" as="geometry"/>
                </mxCell>
                <mxCell id="30" value="Name" style="ellipse;whiteSpace=wrap;html=1;align=center;" parent="1" vertex="1">
                    <mxGeometry x="-140" y="390" width="100" height="40" as="geometry"/>
                </mxCell>
                <mxCell id="31" value="First_name" style="ellipse;whiteSpace=wrap;html=1;align=center;" parent="1" vertex="1">
                    <mxGeometry x="-190" y="450" width="100" height="40" as="geometry"/>
                </mxCell>
                <mxCell id="32" value="Last_name" style="ellipse;whiteSpace=wrap;html=1;align=center;" parent="1" vertex="1">
                    <mxGeometry x="-80" y="450" width="100" height="40" as="geometry"/>
                </mxCell>
                <mxCell id="33" value="Street" style="ellipse;whiteSpace=wrap;html=1;align=center;" parent="1" vertex="1">
                    <mxGeometry x="230" y="-200" width="100" height="40" as="geometry"/>
                </mxCell>
                <mxCell id="34" value="City" style="ellipse;whiteSpace=wrap;html=1;align=center;" parent="1" vertex="1">
                    <mxGeometry x="320.74" y="-230" width="100" height="40" as="geometry"/>
                </mxCell>
                <mxCell id="36" value="PostalCode" style="ellipse;whiteSpace=wrap;html=1;align=center;" parent="1" vertex="1">
                    <mxGeometry x="410.74" y="-200" width="100" height="40" as="geometry"/>
                </mxCell>
                <mxCell id="53" value="TelefoneNr" style="ellipse;whiteSpace=wrap;html=1;align=center;" parent="1" vertex="1">
                    <mxGeometry x="495.74" y="480" width="100" height="40" as="geometry"/>
                </mxCell>
                <mxCell id="54" value="TelefoneNr" style="ellipse;whiteSpace=wrap;html=1;align=center;" parent="1" vertex="1">
                    <mxGeometry x="710" y="120" width="100" height="40" as="geometry"/>
                </mxCell>
                <mxCell id="60" value="Name" style="ellipse;whiteSpace=wrap;html=1;align=center;" parent="1" vertex="1">
                    <mxGeometry x="620" y="480" width="100" height="40" as="geometry"/>
                </mxCell>
                <mxCell id="61" value="First_name" style="ellipse;whiteSpace=wrap;html=1;align=center;" parent="1" vertex="1">
                    <mxGeometry x="565.74" y="535" width="100" height="40" as="geometry"/>
                </mxCell>
                <mxCell id="62" value="Last_name" style="ellipse;whiteSpace=wrap;html=1;align=center;" parent="1" vertex="1">
                    <mxGeometry x="675.74" y="535" width="100" height="40" as="geometry"/>
                </mxCell>
                <mxCell id="63" value="SponsorName" style="ellipse;whiteSpace=wrap;html=1;align=center;" parent="1" vertex="1">
                    <mxGeometry x="648.24" y="77.5" width="100" height="40" as="geometry"/>
                </mxCell>
                <mxCell id="64" value="Address" style="ellipse;whiteSpace=wrap;html=1;align=center;" parent="1" vertex="1">
                    <mxGeometry x="150" y="470" width="100" height="40" as="geometry"/>
                </mxCell>
                <mxCell id="65" value="Street" style="ellipse;whiteSpace=wrap;html=1;align=center;" parent="1" vertex="1">
                    <mxGeometry x="20" y="545" width="100" height="40" as="geometry"/>
                </mxCell>
                <mxCell id="66" value="City" style="ellipse;whiteSpace=wrap;html=1;align=center;" parent="1" vertex="1">
                    <mxGeometry x="90" y="585" width="100" height="40" as="geometry"/>
                </mxCell>
                <mxCell id="67" value="PostalCode" style="ellipse;whiteSpace=wrap;html=1;align=center;" parent="1" vertex="1">
                    <mxGeometry x="200" y="585" width="100" height="40" as="geometry"/>
                </mxCell>
                <mxCell id="68" value="House_nr" style="ellipse;whiteSpace=wrap;html=1;align=center;" parent="1" vertex="1">
                    <mxGeometry x="280" y="550" width="100" height="40" as="geometry"/>
                </mxCell>
                <mxCell id="69" value="Email" style="ellipse;whiteSpace=wrap;html=1;align=center;" parent="1" vertex="1">
                    <mxGeometry x="270" y="460" width="100" height="40" as="geometry"/>
                </mxCell>
                <mxCell id="70" value="" style="endArrow=none;html=1;rounded=0;" parent="1" source="2" target="64" edge="1">
                    <mxGeometry relative="1" as="geometry">
                        <mxPoint x="80" y="520" as="sourcePoint"/>
                        <mxPoint x="240" y="520" as="targetPoint"/>
                    </mxGeometry>
                </mxCell>
                <mxCell id="71" value="" style="endArrow=none;html=1;rounded=0;" parent="1" source="2" target="69" edge="1">
                    <mxGeometry relative="1" as="geometry">
                        <mxPoint x="206.66666666666652" y="350" as="sourcePoint"/>
                        <mxPoint x="192.2200306805671" y="480.0197238748965" as="targetPoint"/>
                    </mxGeometry>
                </mxCell>
                <mxCell id="72" value="" style="endArrow=none;html=1;rounded=0;" parent="1" source="64" target="65" edge="1">
                    <mxGeometry relative="1" as="geometry">
                        <mxPoint x="123.81666666666652" y="439.98" as="sourcePoint"/>
                        <mxPoint x="109.37003068056711" y="569.9997238748965" as="targetPoint"/>
                    </mxGeometry>
                </mxCell>
                <mxCell id="73" value="" style="endArrow=none;html=1;rounded=0;" parent="1" source="64" target="68" edge="1">
                    <mxGeometry relative="1" as="geometry">
                        <mxPoint x="153.4" y="439.98" as="sourcePoint"/>
                        <mxPoint x="250.63247876367714" y="551.1028328727743" as="targetPoint"/>
                    </mxGeometry>
                </mxCell>
                <mxCell id="74" value="" style="endArrow=none;html=1;rounded=0;" parent="1" source="64" target="66" edge="1">
                    <mxGeometry relative="1" as="geometry">
                        <mxPoint x="160" y="516" as="sourcePoint"/>
                        <mxPoint x="89.8162000668799" y="553.9451230409109" as="targetPoint"/>
                    </mxGeometry>
                </mxCell>
                <mxCell id="75" value="" style="endArrow=none;html=1;rounded=0;" parent="1" source="64" target="67" edge="1">
                    <mxGeometry relative="1" as="geometry">
                        <mxPoint x="214.98030912339073" y="517.3250531017065" as="sourcePoint"/>
                        <mxPoint x="294.98612010626584" y="572.6826985351072" as="targetPoint"/>
                    </mxGeometry>
                </mxCell>
                <mxCell id="78" value="" style="shape=link;html=1;rounded=0;entryX=1;entryY=0.5;entryDx=0;entryDy=0;" parent="1" source="18" target="5" edge="1">
                    <mxGeometry relative="1" as="geometry">
                        <mxPoint x="315.74" y="480" as="sourcePoint"/>
                        <mxPoint x="475.74" y="480" as="targetPoint"/>
                    </mxGeometry>
                </mxCell>
                <mxCell id="79" value="N" style="resizable=0;html=1;align=right;verticalAlign=bottom;" parent="78" connectable="0" vertex="1">
                    <mxGeometry x="1" relative="1" as="geometry">
                        <mxPoint x="10" as="offset"/>
                    </mxGeometry>
                </mxCell>
                <mxCell id="81" value="" style="endArrow=none;html=1;rounded=0;" parent="1" source="53" target="18" edge="1">
                    <mxGeometry relative="1" as="geometry">
                        <mxPoint x="665.74" y="580" as="sourcePoint"/>
                        <mxPoint x="825.74" y="580" as="targetPoint"/>
                    </mxGeometry>
                </mxCell>
                <mxCell id="83" value="" style="endArrow=none;html=1;rounded=0;" parent="1" source="18" target="60" edge="1">
                    <mxGeometry relative="1" as="geometry">
                        <mxPoint x="665.74" y="580" as="sourcePoint"/>
                        <mxPoint x="825.74" y="580" as="targetPoint"/>
                    </mxGeometry>
                </mxCell>
                <mxCell id="84" value="" style="endArrow=none;html=1;rounded=0;" parent="1" source="60" target="61" edge="1">
                    <mxGeometry relative="1" as="geometry">
                        <mxPoint x="555" y="580" as="sourcePoint"/>
                        <mxPoint x="715" y="580" as="targetPoint"/>
                    </mxGeometry>
                </mxCell>
                <mxCell id="85" value="" style="endArrow=none;html=1;rounded=0;" parent="1" source="60" target="62" edge="1">
                    <mxGeometry relative="1" as="geometry">
                        <mxPoint x="555" y="580" as="sourcePoint"/>
                        <mxPoint x="715" y="580" as="targetPoint"/>
                    </mxGeometry>
                </mxCell>
                <mxCell id="90" value="&lt;u&gt;Board_Member_ID&lt;/u&gt;" style="ellipse;whiteSpace=wrap;html=1;align=center;" parent="1" vertex="1">
                    <mxGeometry x="730" y="480" width="120" height="40" as="geometry"/>
                </mxCell>
                <mxCell id="91" value="" style="endArrow=none;html=1;rounded=0;" parent="1" source="18" target="90" edge="1">
                    <mxGeometry relative="1" as="geometry">
                        <mxPoint x="734.073333333333" y="440" as="sourcePoint"/>
                        <mxPoint x="829.5957267334541" y="521.876337200104" as="targetPoint"/>
                    </mxGeometry>
                </mxCell>
                <mxCell id="103" value="&lt;u&gt;Sponsor_Id&lt;/u&gt;" style="ellipse;whiteSpace=wrap;html=1;align=center;" parent="1" vertex="1">
                    <mxGeometry x="590" y="120" width="100" height="40" as="geometry"/>
                </mxCell>
                <mxCell id="104" value="" style="endArrow=none;html=1;rounded=0;" parent="1" source="6" target="103" edge="1">
                    <mxGeometry relative="1" as="geometry">
                        <mxPoint x="575.74" y="490" as="sourcePoint"/>
                        <mxPoint x="735.74" y="490" as="targetPoint"/>
                    </mxGeometry>
                </mxCell>
                <mxCell id="105" value="" style="endArrow=none;html=1;rounded=0;" parent="1" source="63" target="6" edge="1">
                    <mxGeometry relative="1" as="geometry">
                        <mxPoint x="558.98" y="472.5" as="sourcePoint"/>
                        <mxPoint x="687.335294117647" y="162.5" as="targetPoint"/>
                    </mxGeometry>
                </mxCell>
                <mxCell id="106" value="" style="endArrow=none;html=1;rounded=0;" parent="1" source="54" target="6" edge="1">
                    <mxGeometry relative="1" as="geometry">
                        <mxPoint x="558.98" y="472.5" as="sourcePoint"/>
                        <mxPoint x="714.7622222222224" y="162.5" as="targetPoint"/>
                    </mxGeometry>
                </mxCell>
                <mxCell id="107" value="" style="shape=link;html=1;rounded=0;" parent="1" source="6" target="7" edge="1">
                    <mxGeometry relative="1" as="geometry">
                        <mxPoint x="185.74" y="460" as="sourcePoint"/>
                        <mxPoint x="345.74" y="460" as="targetPoint"/>
                    </mxGeometry>
                </mxCell>
                <mxCell id="108" value="N" style="resizable=0;html=1;align=right;verticalAlign=bottom;" parent="107" connectable="0" vertex="1">
                    <mxGeometry x="1" relative="1" as="geometry">
                        <mxPoint x="15" as="offset"/>
                    </mxGeometry>
                </mxCell>
                <mxCell id="109" value="" style="endArrow=none;html=1;rounded=0;entryX=0;entryY=0.5;entryDx=0;entryDy=0;" parent="1" source="2" target="7" edge="1">
                    <mxGeometry relative="1" as="geometry">
                        <mxPoint x="250" y="460" as="sourcePoint"/>
                        <mxPoint x="410" y="460" as="targetPoint"/>
                    </mxGeometry>
                </mxCell>
                <mxCell id="110" value="N" style="resizable=0;html=1;align=right;verticalAlign=bottom;" parent="109" connectable="0" vertex="1">
                    <mxGeometry x="1" relative="1" as="geometry"/>
                </mxCell>
                <mxCell id="111" value="Club_Name" style="ellipse;whiteSpace=wrap;html=1;align=center;" parent="1" vertex="1">
                    <mxGeometry x="90" y="150" width="100" height="40" as="geometry"/>
                </mxCell>
                <mxCell id="112" value="&lt;u&gt;Club_Id&lt;/u&gt;" style="ellipse;whiteSpace=wrap;html=1;align=center;" parent="1" vertex="1">
                    <mxGeometry x="200" y="150" width="100" height="40" as="geometry"/>
                </mxCell>
                <mxCell id="114" value="" style="endArrow=none;html=1;rounded=0;" parent="1" source="111" target="2" edge="1">
                    <mxGeometry relative="1" as="geometry">
                        <mxPoint x="250" y="460" as="sourcePoint"/>
                        <mxPoint x="410" y="460" as="targetPoint"/>
                    </mxGeometry>
                </mxCell>
                <mxCell id="115" value="" style="endArrow=none;html=1;rounded=0;" parent="1" source="2" target="112" edge="1">
                    <mxGeometry relative="1" as="geometry">
                        <mxPoint x="250" y="460" as="sourcePoint"/>
                        <mxPoint x="410" y="460" as="targetPoint"/>
                    </mxGeometry>
                </mxCell>
                <mxCell id="116" value="" style="shape=link;html=1;rounded=0;entryX=0;entryY=0.5;entryDx=0;entryDy=0;" parent="1" source="2" target="5" edge="1">
                    <mxGeometry relative="1" as="geometry">
                        <mxPoint x="480" y="670" as="sourcePoint"/>
                        <mxPoint x="640" y="670" as="targetPoint"/>
                    </mxGeometry>
                </mxCell>
                <mxCell id="117" value="N" style="resizable=0;html=1;align=right;verticalAlign=bottom;" parent="116" connectable="0" vertex="1">
                    <mxGeometry x="1" relative="1" as="geometry">
                        <mxPoint y="-10" as="offset"/>
                    </mxGeometry>
                </mxCell>
                <mxCell id="118" value="" style="shape=link;html=1;rounded=0;entryX=1;entryY=0.5;entryDx=0;entryDy=0;" parent="1" source="2" target="3" edge="1">
                    <mxGeometry relative="1" as="geometry">
                        <mxPoint x="-350" y="510" as="sourcePoint"/>
                        <mxPoint x="-190" y="510" as="targetPoint"/>
                    </mxGeometry>
                </mxCell>
                <mxCell id="119" value="1" style="resizable=0;html=1;align=right;verticalAlign=bottom;" parent="118" connectable="0" vertex="1">
                    <mxGeometry x="1" relative="1" as="geometry">
                        <mxPoint x="10" as="offset"/>
                    </mxGeometry>
                </mxCell>
                <mxCell id="120" value="" style="shape=link;html=1;rounded=0;entryX=0;entryY=0.5;entryDx=0;entryDy=0;" parent="1" source="4" target="3" edge="1">
                    <mxGeometry relative="1" as="geometry">
                        <mxPoint x="-380" y="790" as="sourcePoint"/>
                        <mxPoint x="-220" y="790" as="targetPoint"/>
                    </mxGeometry>
                </mxCell>
                <mxCell id="121" value="N" style="resizable=0;html=1;align=right;verticalAlign=bottom;" parent="120" connectable="0" vertex="1">
                    <mxGeometry x="1" relative="1" as="geometry"/>
                </mxCell>
                <mxCell id="122" value="" style="endArrow=none;html=1;rounded=0;" parent="1" source="4" target="30" edge="1">
                    <mxGeometry relative="1" as="geometry">
                        <mxPoint x="-250" y="700" as="sourcePoint"/>
                        <mxPoint x="-90" y="700" as="targetPoint"/>
                    </mxGeometry>
                </mxCell>
                <mxCell id="123" value="" style="endArrow=none;html=1;rounded=0;" parent="1" source="30" target="32" edge="1">
                    <mxGeometry relative="1" as="geometry">
                        <mxPoint x="-180" y="700" as="sourcePoint"/>
                        <mxPoint x="-20" y="700" as="targetPoint"/>
                    </mxGeometry>
                </mxCell>
                <mxCell id="124" value="" style="endArrow=none;html=1;rounded=0;" parent="1" source="30" target="31" edge="1">
                    <mxGeometry relative="1" as="geometry">
                        <mxPoint x="-180" y="700" as="sourcePoint"/>
                        <mxPoint x="-20" y="700" as="targetPoint"/>
                    </mxGeometry>
                </mxCell>
                <mxCell id="125" value="" style="endArrow=none;html=1;rounded=0;" parent="1" source="29" target="4" edge="1">
                    <mxGeometry relative="1" as="geometry">
                        <mxPoint x="-620" y="680" as="sourcePoint"/>
                        <mxPoint x="-460" y="680" as="targetPoint"/>
                    </mxGeometry>
                </mxCell>
                <mxCell id="134" value="" style="endArrow=none;html=1;rounded=0;" parent="1" source="168" target="4" edge="1">
                    <mxGeometry relative="1" as="geometry">
                        <mxPoint x="-227.2130860783493" y="257.80227650128927" as="sourcePoint"/>
                        <mxPoint x="-465" y="560" as="targetPoint"/>
                    </mxGeometry>
                </mxCell>
                <mxCell id="135" value="" style="endArrow=none;html=1;rounded=0;entryX=0;entryY=0.5;entryDx=0;entryDy=0;" parent="1" source="4" target="10" edge="1">
                    <mxGeometry relative="1" as="geometry">
                        <mxPoint x="-330" y="410" as="sourcePoint"/>
                        <mxPoint x="-60" y="260" as="targetPoint"/>
                    </mxGeometry>
                </mxCell>
                <mxCell id="136" value="N" style="resizable=0;html=1;align=right;verticalAlign=bottom;" parent="135" connectable="0" vertex="1">
                    <mxGeometry x="1" relative="1" as="geometry">
                        <mxPoint x="-10" y="30" as="offset"/>
                    </mxGeometry>
                </mxCell>
                <mxCell id="138" value="" style="shape=link;html=1;rounded=0;entryX=1;entryY=0.5;entryDx=0;entryDy=0;" parent="1" source="20" target="10" edge="1">
                    <mxGeometry relative="1" as="geometry">
                        <mxPoint x="-240" y="190" as="sourcePoint"/>
                        <mxPoint x="-180" y="80" as="targetPoint"/>
                    </mxGeometry>
                </mxCell>
                <mxCell id="139" value="N" style="resizable=0;html=1;align=right;verticalAlign=bottom;" parent="138" connectable="0" vertex="1">
                    <mxGeometry x="1" relative="1" as="geometry">
                        <mxPoint x="-10" y="-20" as="offset"/>
                    </mxGeometry>
                </mxCell>
                <mxCell id="140" value="" style="endArrow=none;html=1;rounded=0;" parent="1" source="16" target="20" edge="1">
                    <mxGeometry relative="1" as="geometry">
                        <mxPoint x="-100" y="-70" as="sourcePoint"/>
                        <mxPoint x="60" y="-70" as="targetPoint"/>
                    </mxGeometry>
                </mxCell>
                <mxCell id="141" value="" style="endArrow=none;html=1;rounded=0;" parent="1" source="15" target="20" edge="1">
                    <mxGeometry relative="1" as="geometry">
                        <mxPoint x="-100" y="-70" as="sourcePoint"/>
                        <mxPoint x="60" y="-70" as="targetPoint"/>
                    </mxGeometry>
                </mxCell>
                <mxCell id="142" value="" style="endArrow=none;html=1;rounded=0;" parent="1" source="14" target="20" edge="1">
                    <mxGeometry relative="1" as="geometry">
                        <mxPoint x="-100" y="-70" as="sourcePoint"/>
                        <mxPoint x="60" y="-70" as="targetPoint"/>
                    </mxGeometry>
                </mxCell>
                <mxCell id="143" value="" style="endArrow=none;html=1;rounded=0;" parent="1" source="28" target="10" edge="1">
                    <mxGeometry relative="1" as="geometry">
                        <mxPoint x="-130" y="-70" as="sourcePoint"/>
                        <mxPoint x="30" y="-70" as="targetPoint"/>
                    </mxGeometry>
                </mxCell>
                <mxCell id="150" value="" style="endArrow=none;html=1;rounded=0;" parent="1" source="17" target="21" edge="1">
                    <mxGeometry relative="1" as="geometry">
                        <mxPoint x="160" y="-110" as="sourcePoint"/>
                        <mxPoint x="320" y="-110" as="targetPoint"/>
                    </mxGeometry>
                </mxCell>
                <mxCell id="151" value="1" style="resizable=0;html=1;align=right;verticalAlign=bottom;" parent="150" connectable="0" vertex="1">
                    <mxGeometry x="1" relative="1" as="geometry">
                        <mxPoint x="10" as="offset"/>
                    </mxGeometry>
                </mxCell>
                <mxCell id="152" value="" style="shape=link;html=1;rounded=0;" parent="1" source="20" target="21" edge="1">
                    <mxGeometry relative="1" as="geometry">
                        <mxPoint x="-240" y="-40" as="sourcePoint"/>
                        <mxPoint x="-80" y="-40" as="targetPoint"/>
                    </mxGeometry>
                </mxCell>
                <mxCell id="153" value="N" style="resizable=0;html=1;align=right;verticalAlign=bottom;" parent="152" connectable="0" vertex="1">
                    <mxGeometry x="1" relative="1" as="geometry">
                        <mxPoint x="-10" as="offset"/>
                    </mxGeometry>
                </mxCell>
                <mxCell id="155" value="" style="endArrow=none;html=1;rounded=0;" parent="1" source="19" target="17" edge="1">
                    <mxGeometry relative="1" as="geometry">
                        <mxPoint x="160" y="-110" as="sourcePoint"/>
                        <mxPoint x="320" y="-110" as="targetPoint"/>
                    </mxGeometry>
                </mxCell>
                <mxCell id="156" value="" style="endArrow=none;html=1;rounded=0;" parent="1" source="33" target="19" edge="1">
                    <mxGeometry relative="1" as="geometry">
                        <mxPoint x="160" y="-110" as="sourcePoint"/>
                        <mxPoint x="320" y="-110" as="targetPoint"/>
                    </mxGeometry>
                </mxCell>
                <mxCell id="157" value="" style="endArrow=none;html=1;rounded=0;" parent="1" source="34" target="19" edge="1">
                    <mxGeometry relative="1" as="geometry">
                        <mxPoint x="370" y="-220" as="sourcePoint"/>
                        <mxPoint x="320" y="-110" as="targetPoint"/>
                    </mxGeometry>
                </mxCell>
                <mxCell id="158" value="" style="endArrow=none;html=1;rounded=0;" parent="1" source="36" target="19" edge="1">
                    <mxGeometry relative="1" as="geometry">
                        <mxPoint x="160" y="-110" as="sourcePoint"/>
                        <mxPoint x="320" y="-110" as="targetPoint"/>
                    </mxGeometry>
                </mxCell>
                <mxCell id="159" value="" style="endArrow=none;html=1;rounded=0;" parent="1" source="26" target="17" edge="1">
                    <mxGeometry relative="1" as="geometry">
                        <mxPoint x="160" y="-110" as="sourcePoint"/>
                        <mxPoint x="320" y="-110" as="targetPoint"/>
                    </mxGeometry>
                </mxCell>
                <mxCell id="160" value="" style="endArrow=none;html=1;rounded=0;" parent="1" source="27" target="17" edge="1">
                    <mxGeometry relative="1" as="geometry">
                        <mxPoint x="160" y="-110" as="sourcePoint"/>
                        <mxPoint x="320" y="-110" as="targetPoint"/>
                    </mxGeometry>
                </mxCell>
                <mxCell id="161" value="Email" style="ellipse;whiteSpace=wrap;html=1;align=center;" parent="1" vertex="1">
                    <mxGeometry x="-250" y="390" width="100" height="40" as="geometry"/>
                </mxCell>
                <mxCell id="162" value="" style="endArrow=none;html=1;rounded=0;" parent="1" source="4" target="161" edge="1">
                    <mxGeometry relative="1" as="geometry">
                        <mxPoint x="-425" y="590" as="sourcePoint"/>
                        <mxPoint x="-459.0299693194329" y="730.0197238748965" as="targetPoint"/>
                    </mxGeometry>
                </mxCell>
                <mxCell id="164" value="Amount" style="ellipse;whiteSpace=wrap;html=1;align=center;" parent="1" vertex="1">
                    <mxGeometry x="650.74" y="240" width="100" height="40" as="geometry"/>
                </mxCell>
                <mxCell id="165" value="" style="endArrow=none;html=1;rounded=0;" parent="1" source="6" target="164" edge="1">
                    <mxGeometry relative="1" as="geometry">
                        <mxPoint x="708.5257096190558" y="127.49967333392988" as="sourcePoint"/>
                        <mxPoint x="710.252195121951" y="190" as="targetPoint"/>
                    </mxGeometry>
                </mxCell>
                <mxCell id="168" value="Rating" style="ellipse;whiteSpace=wrap;html=1;align=center;" parent="1" vertex="1">
                    <mxGeometry x="-290" y="220" width="100" height="40" as="geometry"/>
                </mxCell>
            </root>
        </mxGraphModel>
    </diagram>
</mxfile>